# xmcd
#
# Track frame offsets:
#	150
#	16950
#	46817
#	71521
#	92812
#	104743
#	117470
#	134024
#	153332
#	175941
#	195386
#	209455
#
# Disc length: 3018 seconds
#
# Revision: 0
# Processed by: cddbd v1.4PL0 Copyright (c) Steve Scherf et al.
# Submitted via: dBpowerAMP V4.0
#
DISCID=aa0bc80c
DTITLE=Bob Seeley - Detroit Style Boogie and Blues Piano
DYEAR=1900
DGENRE=Blues
TTITLE0=Chicago Flyer
TTITLE1=St. Louis Blues
TTITLE2=Just a Closer Walk
TTITLE3=Barbershop Blues
TTITLE4=Boogie Woogie Man
TTITLE5=K.C. on my Mind
TTITLE6=The Fives
TTITLE7=Honky Tonk Train
TTITLE8=C.C. Rider
TTITLE9=Mr. Freddie's Blues
TTITLE10=Boogie Tidal
TTITLE11=Watermelon Man
EXTD=Bob Seeley is in the Boogie Woogie Hall of Fame, Cincinnati OH\n
EXTT0=
EXTT1=
EXTT2=
EXTT3=
EXTT4=
EXTT5=
EXTT6=
EXTT7=
EXTT8=
EXTT9=
EXTT10=
EXTT11=
PLAYORDER=
